<svg id="visual" viewBox="0 0 960 540" width="960" height="540" xmlns="http://www.w3.org/2000/svg" xmlns:xlink="http://www.w3.org/1999/xlink" version="1.1"><rect width="960" height="540" fill="#001829"></rect><g><g transform="translate(953 127)"><path d="M0 -58.7L25.5 -52.9L45.9 -36.6L57.3 -13.1L57.3 13.1L45.9 36.6L25.5 52.9L0 58.7L-25.5 52.9L-45.9 36.6L-57.3 13.1L-57.3 -13.1L-45.9 -36.6L-25.5 -52.9Z" fill="none" stroke="#297EA6" stroke-width="2"></path></g><g transform="translate(646 121)"><path d="M0 -41L17.8 -36.9L32.1 -25.6L40 -9.1L40 9.1L32.1 25.6L17.8 36.9L0 41L-17.8 36.9L-32.1 25.6L-40 9.1L-40 -9.1L-32.1 -25.6L-17.8 -36.9Z" fill="none" stroke="#297EA6" stroke-width="2"></path></g><g transform="translate(496 494)"><path d="M0 -46L20 -41.4L36 -28.7L44.8 -10.2L44.8 10.2L36 28.7L20 41.4L0 46L-20 41.4L-36 28.7L-44.8 10.2L-44.8 -10.2L-36 -28.7L-20 -41.4Z" stroke="#297EA6" fill="none" stroke-width="2"></path></g><g transform="translate(761 164)"><path d="M0 -48L20.8 -43.2L37.5 -29.9L46.8 -10.7L46.8 10.7L37.5 29.9L20.8 43.2L0 48L-20.8 43.2L-37.5 29.9L-46.8 10.7L-46.8 -10.7L-37.5 -29.9L-20.8 -43.2Z" stroke="#297EA6" fill="none" stroke-width="2"></path></g><g transform="translate(558 373)"><path d="M0 -39L16.9 -35.1L30.5 -24.3L38 -8.7L38 8.7L30.5 24.3L16.9 35.1L0 39L-16.9 35.1L-30.5 24.3L-38 8.7L-38 -8.7L-30.5 -24.3L-16.9 -35.1Z" stroke="#297EA6" fill="none" stroke-width="2"></path></g><g transform="translate(425 276)"><path d="M0 -39L16.9 -35.1L30.5 -24.3L38 -8.7L38 8.7L30.5 24.3L16.9 35.1L0 39L-16.9 35.1L-30.5 24.3L-38 8.7L-38 -8.7L-30.5 -24.3L-16.9 -35.1Z" stroke="#297EA6" fill="none" stroke-width="2"></path></g><g transform="translate(117 196)"><path d="M0 -29L12.6 -26.1L22.7 -18.1L28.3 -6.5L28.3 6.5L22.7 18.1L12.6 26.1L0 29L-12.6 26.1L-22.7 18.1L-28.3 6.5L-28.3 -6.5L-22.7 -18.1L-12.6 -26.1Z" stroke="#297EA6" fill="none" stroke-width="2"></path></g><g transform="translate(826 271)"><path d="M0 -57L24.7 -51.4L44.6 -35.5L55.6 -12.7L55.6 12.7L44.6 35.5L24.7 51.4L0 57L-24.7 51.4L-44.6 35.5L-55.6 12.7L-55.6 -12.7L-44.6 -35.5L-24.7 -51.4Z" stroke="#297EA6" fill="none" stroke-width="2"></path></g><g transform="translate(138 51)"><path d="M0 -52L22.6 -46.9L40.7 -32.4L50.7 -11.6L50.7 11.6L40.7 32.4L22.6 46.9L0 52L-22.6 46.9L-40.7 32.4L-50.7 11.6L-50.7 -11.6L-40.7 -32.4L-22.6 -46.9Z" stroke="#297EA6" fill="none" stroke-width="2"></path></g><g transform="translate(489 5)"><path d="M0 -35L15.2 -31.5L27.4 -21.8L34.1 -7.8L34.1 7.8L27.4 21.8L15.2 31.5L0 35L-15.2 31.5L-27.4 21.8L-34.1 7.8L-34.1 -7.8L-27.4 -21.8L-15.2 -31.5Z" stroke="#297EA6" fill="none" stroke-width="2"></path></g><g transform="translate(355 459)"><path d="M0 -54L23.4 -48.7L42.2 -33.7L52.6 -12L52.6 12L42.2 33.7L23.4 48.7L0 54L-23.4 48.7L-42.2 33.7L-52.6 12L-52.6 -12L-42.2 -33.7L-23.4 -48.7Z" stroke="#297EA6" fill="none" stroke-width="2"></path></g><g transform="translate(209 497)"><path d="M0 -30L13 -27L23.5 -18.7L29.2 -6.7L29.2 6.7L23.5 18.7L13 27L0 30L-13 27L-23.5 18.7L-29.2 6.7L-29.2 -6.7L-23.5 -18.7L-13 -27Z" stroke="#297EA6" fill="none" stroke-width="2"></path></g><g transform="translate(81 405)"><path d="M0 -35L15.2 -31.5L27.4 -21.8L34.1 -7.8L34.1 7.8L27.4 21.8L15.2 31.5L0 35L-15.2 31.5L-27.4 21.8L-34.1 7.8L-34.1 -7.8L-27.4 -21.8L-15.2 -31.5Z" stroke="#297EA6" fill="none" stroke-width="2"></path></g><g transform="translate(687 388)"><path d="M0 -57L24.7 -51.4L44.6 -35.5L55.6 -12.7L55.6 12.7L44.6 35.5L24.7 51.4L0 57L-24.7 51.4L-44.6 35.5L-55.6 12.7L-55.6 -12.7L-44.6 -35.5L-24.7 -51.4Z" stroke="#297EA6" fill="none" stroke-width="2"></path></g><g transform="translate(309 151)"><path d="M0 -29L12.6 -26.1L22.7 -18.1L28.3 -6.5L28.3 6.5L22.7 18.1L12.6 26.1L0 29L-12.6 26.1L-22.7 18.1L-28.3 6.5L-28.3 -6.5L-22.7 -18.1L-12.6 -26.1Z" stroke="#297EA6" fill="none" stroke-width="2"></path></g><g transform="translate(613 525)"><path d="M0 -53L23 -47.8L41.4 -33L51.7 -11.8L51.7 11.8L41.4 33L23 47.8L0 53L-23 47.8L-41.4 33L-51.7 11.8L-51.7 -11.8L-41.4 -33L-23 -47.8Z" stroke="#297EA6" fill="none" stroke-width="2"></path></g><g transform="translate(912 493)"><path d="M0 -49L21.3 -44.1L38.3 -30.6L47.8 -10.9L47.8 10.9L38.3 30.6L21.3 44.1L0 49L-21.3 44.1L-38.3 30.6L-47.8 10.9L-47.8 -10.9L-38.3 -30.6L-21.3 -44.1Z" stroke="#297EA6" fill="none" stroke-width="2"></path></g></g></svg>